<?xml version="1.0" encoding="UTF-8"?>
<!-- Generated by Pixelmator Pro 3.2.3 -->
<svg width="1368" height="372" viewBox="0 0 1368 372" xmlns="http://www.w3.org/2000/svg" xmlns:xlink="http://www.w3.org/1999/xlink">
    <path id="Forme" fill="#005834" fill-rule="evenodd" stroke="none" d="M 1173 255.936523 L 1173 122.943558 L 1186.75 123.221786 L 1200.5 123.5 L 1200.610229 149.5 L 1200.720337 175.5 L 1207.110229 175.5 C 1213.5 175.5 1213.5 175.5 1221.5 163.244156 C 1225.900024 156.503433 1232.875 145.550919 1237 138.905228 C 1241.125 132.259521 1245.287476 125.962158 1246.25 124.911072 C 1247.807251 123.210434 1249.486572 123 1261.5 123 C 1269.055542 123 1275 123.405304 1275 123.920456 C 1275 124.426712 1270.345337 132.122177 1264.656128 141.0215 C 1258.967041 149.920822 1250.304565 163.461823 1245.406128 171.11261 C 1239.582642 180.208344 1236.515869 185.970978 1236.546021 187.761566 C 1236.575317 189.507126 1240.713135 196.844986 1247.958374 208 C 1254.209839 217.625 1261.665039 229.100006 1264.525269 233.5 C 1267.38562 237.899994 1271.643188 244.425003 1273.986572 248 C 1276.329956 251.574997 1278.421021 254.949997 1278.633179 255.5 C 1278.87793 256.13443 1274.902832 256.457214 1267.759521 256.382996 C 1261.566772 256.318604 1254.837402 256.206116 1252.80542 256.132996 C 1249.389404 256.01001 1248.823853 255.526581 1245.30542 249.721649 C 1243.212402 246.268555 1238.393188 238.731064 1234.596069 232.971649 C 1230.798828 227.21225 1225.201294 218.675003 1222.157104 214 C 1219.112793 209.324997 1215.728638 204.487503 1214.636719 203.25 C 1213.005493 201.401337 1211.612183 201 1206.825684 201 C 1201 201 1201 201 1201 228.5 C 1201 244.533661 1200.617188 256 1200.081787 256 C 1199.576782 256 1198.564331 256.123901 1197.831787 256.27536 C 1197.099365 256.426819 1191.212524 256.412537 1184.75 256.243652 L 1173 255.936523 Z"/>
    <path id="path1" fill="#005834" fill-rule="evenodd" stroke="none" d="M 1069 256 L 1043 256 L 1043 189.5 L 1043 123 L 1056.453369 123 C 1069.263184 123 1069.983276 123.10762 1071.51001 125.25 C 1072.391846 126.487503 1075.720581 131.774994 1078.907227 137 C 1082.09375 142.225006 1087.440308 151 1090.788208 156.5 C 1094.136108 162 1102.785278 176.287506 1110.008423 188.25 C 1117.231567 200.212494 1123.55957 210 1124.070679 210 C 1124.628906 210 1125 192.615784 1125 166.470123 L 1125 122.940247 L 1137.75 123.220123 L 1150.5 123.5 L 1150.757324 188.942688 C 1150.898804 224.936172 1150.673828 254.709656 1150.257324 255.106018 C 1149.84082 255.50235 1145.224976 255.978134 1140 256.16333 C 1134.775024 256.34848 1128.791382 256.35907 1126.703003 256.186829 C 1123.222534 255.89978 1122.552124 255.316132 1118.662964 249.186829 C 1116.329346 245.509064 1110.871582 236.584656 1106.534546 229.354797 C 1102.19751 222.124939 1094.695068 209.749939 1089.862427 201.854797 C 1085.029785 193.959656 1078.752808 183.5625 1075.913574 178.75 C 1073.074341 173.9375 1070.3573 170 1069.875732 170 C 1069.388306 170 1069 189.068878 1069 213 L 1069 256 Z"/>
    <path id="path2" fill="#005834" fill-rule="evenodd" stroke="none" d="M 1003.5 255.5 L 993.36499 221.5 L 970.584534 221.5 L 947.804016 221.5 L 944.446045 233.262802 C 942.599121 239.73233 940.380676 247.494843 939.516113 250.512787 C 937.944153 256 937.944153 256 924.365051 256 C 911.837524 256 910.839233 255.864487 911.473206 254.25 C 911.851196 253.287506 913.670044 247.324997 915.515076 241 C 917.360168 234.675003 921.19574 221.625 924.038513 212 C 926.881287 202.375 933.008301 181.675003 937.654053 166 C 942.299805 150.324997 947.090637 134.350006 948.300415 130.5 C 950.5 123.5 950.5 123.5 970.46167 123.5 C 990.42334 123.5 990.42334 123.5 991.692017 126 C 992.389832 127.375 997.046204 142.554688 1002.039429 159.732635 C 1007.032715 176.910583 1015.148499 204.585587 1020.074524 221.232635 C 1025.000488 237.879684 1029.301147 252.525925 1029.631348 253.779831 C 1030.231812 256.059662 1030.231812 256.059662 1016.865906 255.779831 L 1003.5 255.5 Z M 970.495911 198 C 986.218811 198 986.218811 198 985.757202 194.75 C 985.503296 192.962494 983.676147 185.756439 981.696838 178.736526 C 979.71759 171.716629 976.665222 160.786911 974.913818 154.448288 C 973.116943 147.945007 971.266846 143.077713 970.667664 143.277451 C 970.083679 143.472122 967.932068 149.575165 965.886353 156.839767 C 963.840637 164.10437 960.71106 175.099808 958.931641 181.274078 C 957.152283 187.448334 955.488647 193.737503 955.234741 195.25 C 954.77301 198 954.77301 198 970.495911 198 Z"/>
    <path id="path3" fill="#005834" fill-rule="evenodd" stroke="none" d="M 806.996216 255.5 C 806.762207 137.180237 806.968323 126.437378 808.120605 125.785706 C 808.879272 125.356659 814.881287 124.329346 821.458435 123.502808 C 828.035645 122.676254 839.735596 122.005905 847.458435 122.013138 C 857.310059 122.022354 864.246399 122.593048 870.703918 123.925659 C 875.766113 124.970306 882.227539 127.08757 885.062744 128.630661 C 887.897888 130.173767 891.714844 133.185471 893.5448 135.323364 C 895.374756 137.461243 897.680847 140.850571 898.669556 142.855209 C 899.921143 145.39296 900.577454 149.492355 900.830444 156.35202 C 901.1026 163.731903 900.786743 167.269852 899.571655 170.451492 C 898.679504 172.787582 896.337585 176.582184 894.36731 178.883957 C 892.397095 181.185715 889.033447 183.962601 886.892578 185.05481 C 884.751648 186.147018 883 187.46344 883 187.980179 C 883 188.496933 884.912476 189.485031 887.25 190.17598 C 889.991516 190.986343 893.326294 193.247406 896.645386 196.546249 C 900.41925 200.297195 902.253113 203.127243 903.525635 207.164032 C 904.827759 211.294998 905.147522 214.891708 904.807434 221.583893 C 904.449646 228.624039 903.807373 231.565353 901.754822 235.563461 C 900.325134 238.348358 897.336548 242.270081 895.113586 244.278412 C 892.890625 246.286743 888.918152 248.995468 886.285889 250.297821 C 883.653687 251.600159 878.575012 253.415192 875 254.331223 C 871.424988 255.247253 863.549988 256.447083 857.5 256.997528 C 851.450012 257.547974 843.349976 257.913635 839.5 257.810089 C 835.650024 257.706543 829.799988 257.457428 826.5 257.2565 C 823.200012 257.055573 817.46167 256.578156 813.748108 256.195587 L 806.996216 255.5 Z M 834.5 199.5 C 833.955322 235.882828 833.955322 235.882828 838.227661 236.336227 C 840.577454 236.585602 847.645813 236.623993 853.935181 236.421555 C 863.706726 236.10704 866.128601 235.68251 870.582214 233.503571 C 874.388733 231.641205 876.257141 229.977905 877.51123 227.335098 C 878.455627 225.34491 879.46167 221.9767 879.746948 219.850174 C 880.06897 217.449265 879.619385 214.291977 878.560913 211.520325 C 877.623352 209.06543 875.518372 205.931061 873.883057 204.555084 C 872.247803 203.179092 869.017639 201.47879 866.704956 200.776642 C 864.153931 200.002151 856.993286 199.5 848.5 199.5 L 834.5 199.5 Z M 834 178 C 849.112488 177.988297 856.424988 177.512848 860 176.935913 C 863.575012 176.358963 867.533997 175.212906 868.797729 174.38913 C 870.061523 173.565338 871.97229 171.453278 873.044006 169.695663 C 874.495972 167.314407 874.993469 164.671906 874.996277 159.326721 C 874.999512 153.120667 874.661072 151.750641 872.486267 149.166046 C 871.103699 147.52298 867.873535 145.463455 865.308105 144.589325 C 862.137146 143.508865 857.098755 143.004379 849.571838 143.013657 C 843.482361 143.021164 837.487488 143.298645 836.25 143.63028 C 834.029297 144.225403 834 144.453278 834 161.116638 L 834 178 Z"/>
    <path id="path4" fill="#00bc78" fill-rule="evenodd" stroke="none" d="M 716 259 L 716 148.042282 L 696.25 147.771133 L 676.5 147.5 L 676.5 135.5 L 676.5 123.5 L 729.5 123.5 L 782.5 123.5 L 782.5 135.5 L 782.5 147.5 L 762.75 147.771133 L 743 148.042282 L 743 203.521133 L 743 259 L 729.5 259 L 716 259 Z"/>
    <path id="path5" fill="#00bc78" fill-rule="evenodd" stroke="none" d="M 556.5 123.5 C 576.650024 123.111694 583.010071 123.3367 583.633545 123.749481 C 584.257019 124.162262 589.764771 132.940338 595.873047 143.256317 C 601.981323 153.572296 611.263367 169.220612 616.499756 178.03035 C 621.736084 186.840088 628.397522 198.168625 631.302795 203.204895 C 634.20813 208.24115 637.016052 212.505569 637.542603 212.681366 C 638.142944 212.881805 638.5 196.312393 638.5 168.250504 L 638.5 123.5 L 651.25 123.220123 L 664 122.940247 L 664 190.998337 L 664 259.056458 L 650.25 258.778229 L 636.5 258.5 L 619.5 230.188461 C 610.150024 214.617126 599.349976 196.456055 595.5 189.830521 C 591.650024 183.205002 587.599976 176.404892 586.5 174.719162 C 585.400024 173.033417 584.043091 171.5047 583.48468 171.321991 C 582.805847 171.099884 582.595337 182.444122 582.849426 205.550644 C 583.058472 224.559113 582.910828 244.361404 582.521423 249.555756 L 581.813354 259 L 569.375305 259 C 560.346252 259 556.806335 258.65741 556.459595 257.75 C 556.196899 257.0625 556.098511 226.574997 556.240967 190 L 556.5 123.5 Z"/>
    <path id="path6" fill="#00bc78" fill-rule="evenodd" stroke="none" d="M 451.5 123.5 L 537.5 123.5 L 537.5 135 L 537.5 146.5 L 508.25 146.765106 L 479 147.030212 L 479 162.515106 L 479 178 L 504 178 L 529 178 L 529 189.482834 L 529 200.965652 L 503.75 201.232834 L 478.5 201.5 L 478.690063 218.5 L 478.880096 235.5 L 508.940063 235.764664 L 539 236.029327 L 539 247.514664 L 539 259 L 495.468628 259 C 461.564911 259 451.831604 258.723541 451.459595 257.75 C 451.19693 257.0625 451.098541 226.574997 451.240997 190 L 451.5 123.5 Z"/>
    <path id="path7" fill="#00bc78" fill-rule="evenodd" stroke="none" d="M 403.960999 237 L 404.5 193.5 L 417 193.5 L 429.5 193.5 L 429.764069 225.269394 C 430.028137 257.038818 430.028137 257.038818 427.264069 258.128784 C 425.702423 258.744598 415.582123 259.364136 404 259.552917 C 392.725006 259.736725 381.25 259.506592 378.5 259.041504 C 375.75 258.576447 370.245331 257.074188 366.267365 255.703171 C 362.289429 254.332153 357.069305 252.058563 354.667084 250.650787 C 352.264862 249.242996 347.697327 245.433746 344.516968 242.185776 C 341.336609 238.937805 337.391907 233.854797 335.750946 230.890182 C 334.109955 227.925583 331.694702 221.2798 330.383667 216.12178 C 328.398071 208.309769 328 204.253845 328 191.835587 C 328 179.943771 328.435333 175.164658 330.151703 168.213806 C 331.335144 163.421219 333.638367 156.819855 335.27002 153.544128 C 336.901642 150.268402 339.592987 145.900467 341.250732 143.837616 C 342.908508 141.77475 346.890137 138.024429 350.098785 135.503555 C 353.307465 132.982681 358.343292 129.816559 361.28952 128.467728 C 364.235779 127.118896 369.088409 125.516479 372.073151 124.906799 C 375.057922 124.297119 379.299988 123.413269 381.5 122.942703 C 383.700012 122.472122 391.125 122.105423 398 122.127823 C 405.637787 122.15271 413.611816 122.816483 418.5 123.834274 C 426.5 125.5 426.5 125.5 426.786774 135.913208 C 426.944519 141.640488 426.658936 146.741058 426.152161 147.247818 C 425.590302 147.809677 422.161652 147.648438 417.365387 146.83461 C 413.039429 146.100571 405.219513 145.5 399.987823 145.5 C 394.756104 145.5 388.006104 146.123291 384.987823 146.885086 C 381.969513 147.646881 377.45694 149.294098 374.959839 150.545593 C 372.462769 151.797073 368.490967 154.913452 366.133606 157.470886 C 363.776245 160.02832 361.20047 163.669327 360.409668 165.561981 C 359.618835 167.454651 358.303162 172.1819 357.485901 176.066971 C 356.668671 179.952057 356.000092 186.813828 356.000183 191.315369 C 356.000275 195.816925 356.670044 202.999725 357.488525 207.277161 C 358.307037 211.554596 359.723389 216.504608 360.635986 218.277161 C 361.548553 220.049728 363.795868 223.33667 365.629974 225.581482 C 367.464081 227.826279 371.110168 230.824829 373.732361 232.244888 C 376.354553 233.664963 381.170135 235.315796 384.433655 235.913422 C 387.697174 236.511032 393.425903 237 397.164154 237 L 403.960999 237 Z"/>
    <path id="path8" fill="#00bc78" fill-rule="evenodd" stroke="none" d="M 247.034943 209 L 246.5 258.5 L 233.444336 258.777679 C 226.263718 258.930389 220.076218 258.742889 219.694336 258.361023 C 219.312454 257.979126 219 228.523804 219 192.904755 C 219 137.264801 219.207016 127.935837 220.469727 126.673126 C 221.278076 125.864777 224.765579 124.904724 228.219727 124.539673 C 231.673874 124.174606 236.945145 123.453842 239.933655 122.937973 C 242.922165 122.422089 250.797165 122.000366 257.433655 122.000824 C 264.379211 122.001297 272.682892 122.654999 277 123.541168 C 281.125 124.387909 286.524994 125.820511 289 126.724716 C 291.475006 127.628922 295.372223 129.629654 297.660461 131.170807 C 299.94873 132.71196 303.392609 135.809006 305.313507 138.053146 C 307.234406 140.297287 309.81189 144.823029 311.04129 148.110367 C 312.849976 152.946747 313.285767 156.225861 313.324951 165.293671 C 313.365234 174.613876 312.996277 177.459641 311.132935 182.20163 C 309.900696 185.337524 306.814056 190.214996 304.273712 193.040451 C 301.733398 195.865906 297.221649 199.550903 294.247589 201.229355 C 290.506714 203.340591 288.972839 204.777084 289.270538 205.890533 C 289.507202 206.775742 296.981964 218.411713 305.881134 231.748245 C 314.780304 245.084778 322.32074 256.672272 322.637695 257.49823 C 323.133911 258.791321 321.201721 259 308.733459 259 C 294.25296 259 294.25296 259 287.834442 248.75 C 284.30423 243.112503 277.063965 231.862503 271.744934 223.75 C 262.074005 209 262.074005 209 254.554459 209 L 247.034943 209 Z M 264.5 187.235672 C 267.799988 187.012939 272.075012 186.363083 274 185.79158 C 275.924988 185.220062 278.962982 183.659897 280.751038 182.324539 C 282.539124 180.989182 284.714355 178.519241 285.58493 176.835785 C 286.455475 175.152328 287.412506 171.403275 287.7117 168.504532 C 288.010864 165.605804 287.705658 160.941513 287.033447 158.139435 C 286.185608 154.605209 284.722931 151.987671 282.257965 149.59346 C 279.782318 147.188889 276.784882 145.622498 272.374756 144.428726 C 267.721375 143.169113 263.812164 142.854584 257.615356 143.24118 C 252.979141 143.530426 248.694061 144.071045 248.092941 144.442551 C 247.35878 144.896286 247 151.976028 247 166.009109 C 247 186.900192 247 186.900192 252.75 187.270432 C 255.912506 187.47406 261.200012 187.45842 264.5 187.235672 Z"/>
    <path id="path9" fill="#00bc78" fill-rule="evenodd" stroke="none" d="M 170.261444 223.5 C 129.038528 223.003036 125.330757 223.194748 124.417702 224.443436 C 123.821281 225.259094 122.060799 231.005508 120.505539 237.213226 C 118.950272 243.420959 116.920494 250.75 115.994919 253.5 C 114.312057 258.5 114.312057 258.5 101.040131 258.779846 C 87.768211 259.059662 87.768211 259.059662 88.361649 256.779846 C 88.688042 255.525925 92.819557 241.225006 97.542801 225 C 102.266037 208.774994 108.563416 187.058914 111.536964 176.74202 C 114.510513 166.42514 119.030251 150.67514 121.580833 141.74202 C 124.131416 132.808914 126.930161 124.9375 127.800262 124.25 C 128.939163 123.350113 134.664642 123 148.242157 123 C 167.102051 123 167.102051 123 168.419754 126.25 C 169.144485 128.037506 172.07103 137.705444 174.923203 147.734314 C 177.775375 157.763184 182.340164 173.624054 185.0672 182.980698 C 187.794235 192.337326 193.010559 210.231888 196.659042 222.746384 C 200.30751 235.260864 203.898209 247.721756 204.638351 250.437225 C 205.378494 253.15271 206.242981 256.190216 206.559418 257.187225 C 207.095642 258.876709 206.213257 259 193.586441 259 C 180.038101 259 180.038101 259 179.377441 256.25 C 179.014084 254.737503 176.814331 246.75 174.48912 238.5 L 170.261444 223.5 Z M 150.671295 199.620605 C 156.815521 199.549164 162.158798 199.17453 162.545258 198.788071 C 162.931717 198.401611 162.357849 194.803711 161.270004 190.792709 C 160.182159 186.781723 157.199402 175.738022 154.641647 166.25116 C 152.083908 156.764297 149.510422 147.144547 148.922806 144.873947 C 148.33519 142.603363 147.525375 141.140335 147.12323 141.622803 C 146.721085 142.105255 145.816055 144.75 145.11203 147.5 C 144.40802 150.25 142.98558 155.649994 141.951065 159.5 C 140.91655 163.350006 138.925873 170.550003 137.527359 175.5 C 136.128845 180.449997 134.304886 186.860336 133.474121 189.745178 C 132.643356 192.630035 131.701675 195.864456 131.3815 196.932785 C 130.87944 198.608063 131.397675 198.935394 135.149689 199.312836 C 137.542358 199.553528 144.527084 199.692032 150.671295 199.620605 Z"/>
</svg>
